<?xml version="1.0" encoding="utf-8"?>
<!-- Generator: Adobe Illustrator 19.1.0, SVG Export Plug-In . SVG Version: 6.00 Build 0)  -->
<svg version="1.1" id="Layer_1" xmlns="http://www.w3.org/2000/svg" xmlns:xlink="http://www.w3.org/1999/xlink" x="0px" y="0px"
	 viewBox="0 0 50 50" style="enable-background:new 0 0 50 50;" xml:space="preserve">
<style type="text/css">
	.st0{fill:#161621;}
	.st1{fill:#FF3100;}
</style>
<g id="New_Symbol_1_">
	<path class="st0" d="M44,41.2c5.6-3.4-1.5-8.7-2.3-10.8C40.3,27,37.7,18.7,33.5,15c-1.5-1.3-4.6-4-9.3-6.2
		C17.7,5.6,11.1,4.9,1.4,2.9C3.6,10.1,5.8,26,16.2,34.9c3,2.6,10.4,3.9,14.1,4.8C34.1,40.7,41.7,47.8,44,41.2z"/>
	<path class="st0" d="M32.8,15.8c-10.5-9-17.2-10-31.5-12.9c2.5,8,5.3,22.3,15.8,31.2"/>
	<path class="st0" d="M39.2,36.5c-1.4,1.4-3.2,4.9-0.8,7.1c2.3,2.2,7.3,0,9.3,0.9c-0.9-1.2,0.2-6.2-2.1-8.4
		C43.2,33.9,40.6,35.1,39.2,36.5z"/>
	<ellipse transform="matrix(0.8205 0.5717 -0.5717 0.8205 31.5987 -17.5583)" class="st1" cx="43.8" cy="41.5" rx="2.5" ry="0.7"/>
</g>
<g id="New_Symbol">
</g>
</svg>
